#Comment line ignore any data following # character 
#Hierarchical Translation and Rotation (.htr) file 
[Header]	
#Header keywords are followed by a single value 
FileType HTR		#Single word string
DataType HTRS		#Translation followed by rotation and scale data
FileVersion 1		#integer
NumSegments 84		#integer
NumFrames 2		#integer
DataFrameRate 30		#integer, data frame rate in this file
EulerRotationOrder ZYX
CalibrationUnits mm
RotationUnits Degrees
GlobalAxisofGravity Y
BoneLengthAxis Y
ScaleFactor 1.00
[SegmentNames&Hierarchy]
#CHILD	PARENT
MASTER GLOBAL
root MASTER
chest root
L_mid_tent01 root
R_mid_tent01 root
spine01 root
Bip01_Neck chest
L_humerus chest
R_humerus chest
weapon_bone chest
Bip01_Head Bip01_Neck
eye_left_bone Bip01_Head
eye_right_bone Bip01_Head
L_forearm L_humerus
L_front_hand L_forearm
L_weapon_bone L_forearm
L_front_hand01_01 L_front_hand
L_front_hand02_01 L_front_hand
L_front_hand03_01 L_front_hand
L_front_hand01_02 L_front_hand01_01
L_front_hand02_02 L_front_hand02_01
L_front_hand03_02 L_front_hand03_01
R_forearm R_humerus
R_front_hand R_forearm
R_weapon_bone R_forearm
R_front_hand01_01 R_front_hand
R_front_hand02_01 R_front_hand
R_front_hand03_01 R_front_hand
R_front_hand01_02 R_front_hand01_01
R_front_hand02_02 R_front_hand02_01
R_front_hand03_02 R_front_hand03_01
null_rope01_connect L_mid_tent01
Rope1_Seg01 null_rope01_connect
Rope1_Seg02 Rope1_Seg01
Rope1_Seg03 Rope1_Seg02
Rope1_Seg04 Rope1_Seg03
Rope1_Seg05 Rope1_Seg04
Rope1_Seg06 Rope1_Seg05
Rope1_Seg07 Rope1_Seg06
Rope1_Seg09 Rope1_Seg07
L_mid_hand01 Rope1_Seg09
L_mid_hand02 Rope1_Seg09
L_mid_hand03 Rope1_Seg09
null_rope02_connect R_mid_tent01
Rope2_Seg01 null_rope02_connect
Rope2_Seg02 Rope2_Seg01
Rope2_Seg03 Rope2_Seg02
Rope2_Seg04 Rope2_Seg03
Rope2_Seg05 Rope2_Seg04
Rope2_Seg06 Rope2_Seg05
Rope2_Seg07 Rope2_Seg06
Rope2_Seg09 Rope2_Seg07
R_mid_hand01 Rope2_Seg09
R_mid_hand02 Rope2_Seg09
R_mid_hand03 Rope2_Seg09
spine02 spine01
spine03 spine02
pelvis spine03
null_rope03_connect pelvis
null_rope04_connect pelvis
Rope3_Seg01 null_rope03_connect
Rope3_Seg02 Rope3_Seg01
Rope3_Seg03 Rope3_Seg02
Rope3_Seg04 Rope3_Seg03
Rope3_Seg05 Rope3_Seg04
Rope3_Seg06 Rope3_Seg05
Rope3_Seg07 Rope3_Seg06
Rope3_Seg08 Rope3_Seg07
Rope3_Seg09 Rope3_Seg08
R_rear_hand01 Rope3_Seg09
R_rear_hand02 Rope3_Seg09
R_rear_hand03 Rope3_Seg09
Rope4_Seg01 null_rope04_connect
Rope4_Seg02 Rope4_Seg01
Rope4_Seg03 Rope4_Seg02
Rope4_Seg04 Rope4_Seg03
Rope4_Seg05 Rope4_Seg04
Rope4_Seg06 Rope4_Seg05
Rope4_Seg07 Rope4_Seg06
Rope4_Seg08 Rope4_Seg07
Rope4_Seg09 Rope4_Seg08
L_rear_hand01 Rope4_Seg09
L_rear_hand02 Rope4_Seg09
L_rear_hand03 Rope4_Seg09
[BasePosition]
#SegmentName Tx, Ty, Tz, Rx, Ry, Rz, BoneLength
MASTER 0.000000 0.000000 0.000000 -90.000000 0.000000 0.000000 10.000000 
root 0.000000 0.000000 0.000000 0.000000 0.000000 0.000000 10.000000 
chest 0.000000 0.000000 0.000000 0.000000 0.000000 0.000000 10.000000 
L_mid_tent01 0.000000 0.000000 0.000000 0.000000 0.000000 0.000000 10.000000 
R_mid_tent01 0.000000 0.000000 0.000000 0.000000 0.000000 0.000000 10.000000 
spine01 0.000000 0.000000 0.000000 0.000000 0.000000 0.000000 10.000000 
Bip01_Neck 0.000000 0.000000 0.000000 0.000000 0.000000 0.000000 10.000000 
L_humerus 0.000000 0.000000 0.000000 0.000000 0.000000 0.000000 10.000000 
R_humerus 0.000000 0.000000 0.000000 0.000000 0.000000 0.000000 10.000000 
weapon_bone 0.000000 0.000000 0.000000 0.000000 0.000000 0.000000 10.000000 
Bip01_Head 0.000000 0.000000 0.000000 0.000000 0.000000 0.000000 10.000000 
eye_left_bone 0.000000 0.000000 0.000000 0.000000 0.000000 0.000000 10.000000 
eye_right_bone 0.000000 0.000000 0.000000 0.000000 0.000000 0.000000 10.000000 
L_forearm 0.000000 0.000000 0.000000 0.000000 0.000000 0.000000 10.000000 
L_front_hand 0.000000 0.000000 0.000000 0.000000 0.000000 0.000000 10.000000 
L_weapon_bone 0.000000 0.000000 0.000000 0.000000 0.000000 0.000000 10.000000 
L_front_hand01_01 0.000000 0.000000 0.000000 0.000000 0.000000 0.000000 10.000000 
L_front_hand02_01 0.000000 0.000000 0.000000 0.000000 0.000000 0.000000 10.000000 
L_front_hand03_01 0.000000 0.000000 0.000000 0.000000 0.000000 0.000000 10.000000 
L_front_hand01_02 0.000000 0.000000 0.000000 0.000000 0.000000 0.000000 10.000000 
L_front_hand02_02 0.000000 0.000000 0.000000 0.000000 0.000000 0.000000 10.000000 
L_front_hand03_02 0.000000 0.000000 0.000000 0.000000 0.000000 0.000000 10.000000 
R_forearm 0.000000 0.000000 0.000000 0.000000 0.000000 0.000000 10.000000 
R_front_hand 0.000000 0.000000 0.000000 0.000000 0.000000 0.000000 10.000000 
R_weapon_bone 0.000000 0.000000 0.000000 0.000000 0.000000 0.000000 10.000000 
R_front_hand01_01 0.000000 0.000000 0.000000 0.000000 0.000000 0.000000 10.000000 
R_front_hand02_01 0.000000 0.000000 0.000000 0.000000 0.000000 0.000000 10.000000 
R_front_hand03_01 0.000000 0.000000 0.000000 0.000000 0.000000 0.000000 10.000000 
R_front_hand01_02 0.000000 0.000000 0.000000 0.000000 0.000000 0.000000 10.000000 
R_front_hand02_02 0.000000 0.000000 0.000000 0.000000 0.000000 0.000000 10.000000 
R_front_hand03_02 0.000000 0.000000 0.000000 0.000000 0.000000 0.000000 10.000000 
null_rope01_connect 0.000000 0.000000 0.000000 0.000000 0.000000 0.000000 10.000000 
Rope1_Seg01 0.000000 0.000000 0.000000 0.000000 0.000000 0.000000 10.000000 
Rope1_Seg02 0.000000 0.000000 0.000000 0.000000 0.000000 0.000000 10.000000 
Rope1_Seg03 0.000000 0.000000 0.000000 0.000000 0.000000 0.000000 10.000000 
Rope1_Seg04 0.000000 0.000000 0.000000 0.000000 0.000000 0.000000 10.000000 
Rope1_Seg05 0.000000 0.000000 0.000000 0.000000 0.000000 0.000000 10.000000 
Rope1_Seg06 0.000000 0.000000 0.000000 0.000000 0.000000 0.000000 10.000000 
Rope1_Seg07 0.000000 0.000000 0.000000 0.000000 0.000000 0.000000 10.000000 
Rope1_Seg09 0.000000 0.000000 0.000000 0.000000 0.000000 0.000000 10.000000 
L_mid_hand01 0.000000 0.000000 0.000000 0.000000 0.000000 0.000000 10.000000 
L_mid_hand02 0.000000 0.000000 0.000000 0.000000 0.000000 0.000000 10.000000 
L_mid_hand03 0.000000 0.000000 0.000000 0.000000 0.000000 0.000000 10.000000 
null_rope02_connect 0.000000 0.000000 0.000000 0.000000 0.000000 0.000000 10.000000 
Rope2_Seg01 0.000000 0.000000 0.000000 0.000000 0.000000 0.000000 10.000000 
Rope2_Seg02 0.000000 0.000000 0.000000 0.000000 0.000000 0.000000 10.000000 
Rope2_Seg03 0.000000 0.000000 0.000000 0.000000 0.000000 0.000000 10.000000 
Rope2_Seg04 0.000000 0.000000 0.000000 0.000000 0.000000 0.000000 10.000000 
Rope2_Seg05 0.000000 0.000000 0.000000 0.000000 0.000000 0.000000 10.000000 
Rope2_Seg06 0.000000 0.000000 0.000000 0.000000 0.000000 0.000000 10.000000 
Rope2_Seg07 0.000000 0.000000 0.000000 0.000000 0.000000 0.000000 10.000000 
Rope2_Seg09 0.000000 0.000000 0.000000 0.000000 0.000000 0.000000 10.000000 
R_mid_hand01 0.000000 0.000000 0.000000 0.000000 0.000000 0.000000 10.000000 
R_mid_hand02 0.000000 0.000000 0.000000 0.000000 0.000000 0.000000 10.000000 
R_mid_hand03 0.000000 0.000000 0.000000 0.000000 0.000000 0.000000 10.000000 
spine02 0.000000 0.000000 0.000000 0.000000 0.000000 0.000000 10.000000 
spine03 0.000000 0.000000 0.000000 0.000000 0.000000 0.000000 10.000000 
pelvis 0.000000 0.000000 0.000000 0.000000 0.000000 0.000000 10.000000 
null_rope03_connect 0.000000 0.000000 0.000000 0.000000 0.000000 0.000000 10.000000 
null_rope04_connect 0.000000 0.000000 0.000000 0.000000 0.000000 0.000000 10.000000 
Rope3_Seg01 0.000000 0.000000 0.000000 0.000000 0.000000 0.000000 10.000000 
Rope3_Seg02 0.000000 0.000000 0.000000 0.000000 0.000000 0.000000 10.000000 
Rope3_Seg03 0.000000 0.000000 0.000000 0.000000 0.000000 0.000000 10.000000 
Rope3_Seg04 0.000000 0.000000 0.000000 0.000000 0.000000 0.000000 10.000000 
Rope3_Seg05 0.000000 0.000000 0.000000 0.000000 0.000000 0.000000 10.000000 
Rope3_Seg06 0.000000 0.000000 0.000000 0.000000 0.000000 0.000000 10.000000 
Rope3_Seg07 0.000000 0.000000 0.000000 0.000000 0.000000 0.000000 10.000000 
Rope3_Seg08 0.000000 0.000000 0.000000 0.000000 0.000000 0.000000 10.000000 
Rope3_Seg09 0.000000 0.000000 0.000000 0.000000 0.000000 0.000000 10.000000 
R_rear_hand01 0.000000 0.000000 0.000000 0.000000 0.000000 0.000000 10.000000 
R_rear_hand02 0.000000 0.000000 0.000000 0.000000 0.000000 0.000000 10.000000 
R_rear_hand03 0.000000 0.000000 0.000000 0.000000 0.000000 0.000000 10.000000 
Rope4_Seg01 0.000000 0.000000 0.000000 0.000000 0.000000 0.000000 10.000000 
Rope4_Seg02 0.000000 0.000000 0.000000 0.000000 0.000000 0.000000 10.000000 
Rope4_Seg03 0.000000 0.000000 0.000000 0.000000 0.000000 0.000000 10.000000 
Rope4_Seg04 0.000000 0.000000 0.000000 0.000000 0.000000 0.000000 10.000000 
Rope4_Seg05 0.000000 0.000000 0.000000 0.000000 0.000000 0.000000 10.000000 
Rope4_Seg06 0.000000 0.000000 0.000000 0.000000 0.000000 0.000000 10.000000 
Rope4_Seg07 0.000000 0.000000 0.000000 0.000000 0.000000 0.000000 10.000000 
Rope4_Seg08 0.000000 0.000000 0.000000 0.000000 0.000000 0.000000 10.000000 
Rope4_Seg09 0.000000 0.000000 0.000000 0.000000 0.000000 0.000000 10.000000 
L_rear_hand01 0.000000 0.000000 0.000000 0.000000 0.000000 0.000000 10.000000 
L_rear_hand02 0.000000 0.000000 0.000000 0.000000 0.000000 0.000000 10.000000 
L_rear_hand03 0.000000 0.000000 0.000000 0.000000 0.000000 0.000000 10.000000 
#Beginning of Data. Separated by tabs
#Fr	Tx	Ty	Tz	Rx	Ry	Rz	SF
[MASTER]
31 0.000003 -0.000017 -5188.259277 0.001660 0.001660 0.001660 5188.259277
32 0.000003 -0.000015 -5133.401855 0.001660 0.001660 0.001660 5133.401855
[root]
31 -16.502304 7.012926 1449.484497 -90.971970 -26.766821 -89.524933 1449.595337
32 -16.502304 7.747494 1449.118408 -92.288544 -27.628216 -88.966431 1449.233032
[chest]
31 -84.512650 -34.090519 0.000000 -2.516076 -1.676356 -175.090179 91.129311
32 -84.512650 -34.090519 0.000000 -2.453847 -1.337516 -178.152390 91.129311
[L_mid_tent01]
31 27.299219 22.178814 -249.918655 -7.632944 31.909388 57.548847 252.381622
32 27.299217 22.178831 -249.918655 -12.328543 28.268787 46.184273 252.381622
[R_mid_tent01]
31 23.228794 24.509907 226.238495 176.675522 -41.797840 63.393303 228.744751
32 23.228794 24.509907 226.238495 -176.931534 -37.364223 52.521767 228.744751
[spine01]
31 -0.361383 -0.195265 0.000000 0.001850 0.001445 14.003101 0.410763
32 -0.361383 -0.195265 0.000000 0.001868 0.001422 15.434316 0.410763
[Bip01_Neck]
31 165.484543 71.581718 0.000119 176.643677 -1.657967 43.431911 180.302734
32 165.484543 71.581718 0.000119 176.643677 -1.657967 43.431911 180.302734
[L_humerus]
31 -13.983130 -135.272980 -120.471481 162.972168 61.738804 -101.318741 181.680161
32 -13.983130 -135.272980 -120.471481 156.317398 70.210068 -112.010254 181.680161
[R_humerus]
31 -13.983309 -135.273102 125.287651 -173.098450 -57.705051 -91.650177 184.909012
32 -13.983309 -135.273102 125.287651 -172.382263 -66.903831 -92.553993 184.909012
[weapon_bone]
31 235.964890 -300.705902 0.000000 0.000000 -89.951546 -128.212341 382.234833
32 235.964890 -300.705902 0.000000 0.000000 -89.951546 -128.212341 382.234833
[Bip01_Head]
31 213.444199 185.715332 11.776956 4.962490 2.797846 -43.898743 283.173645
32 213.444199 185.715332 11.776952 4.962491 2.797846 -43.898743 283.173645
[eye_left_bone]
31 -24.626970 125.451866 -64.772606 0.000000 -90.000000 -99.840431 143.318359
32 -24.626970 125.451866 -64.772606 0.000000 -90.000000 -99.840431 143.318359
[eye_right_bone]
31 -24.626970 125.451866 64.327362 0.000000 -89.965736 80.156380 143.117676
32 -24.626970 125.451866 64.327362 0.000000 -89.965736 80.156380 143.117676
[L_forearm]
31 322.776093 0.000000 -0.000119 0.000168 -0.002341 -98.230614 322.776093
32 322.776093 0.000000 -0.000119 0.000214 -0.002337 -100.475143 322.776093
[L_front_hand]
31 241.149185 -0.042021 -3.300071 -178.667953 -1.835447 -27.422350 241.171753
32 241.149185 -0.042021 -3.300071 -178.667953 -1.835447 -27.422342 241.171753
[L_weapon_bone]
31 156.183838 0.000000 0.000000 0.000014 0.000007 0.000001 156.183838
32 156.183838 0.000000 0.000000 0.000014 0.000007 0.000001 156.183838
[L_front_hand01_01]
31 86.095154 20.947098 -0.655860 -0.366594 -0.477154 75.385574 88.609184
32 86.095154 20.947098 -0.655860 -0.366594 -0.477154 75.385574 88.609184
[L_front_hand02_01]
31 86.935165 -11.437475 24.513514 154.399796 -59.883835 -61.369587 91.046425
32 86.935165 -11.437475 24.513514 154.399796 -59.883835 -61.369587 91.046425
[L_front_hand03_01]
31 86.637497 -14.123976 -20.424902 -153.913849 58.118122 -62.702866 90.126129
32 86.637497 -14.123976 -20.424902 -153.913849 58.118122 -62.702866 90.126129
[L_front_hand01_02]
31 71.020905 -0.000179 0.000030 0.000334 -0.002323 -106.379684 71.020905
32 71.020905 -0.000179 0.000030 0.000334 -0.002323 -106.379684 71.020905
[L_front_hand02_02]
31 71.020927 -0.000119 0.000060 0.000334 -0.002323 -106.379684 71.020927
32 71.020927 -0.000119 0.000060 0.000334 -0.002323 -106.379684 71.020927
[L_front_hand03_02]
31 71.020905 -0.000060 0.000060 0.000334 -0.002323 -106.379684 71.020905
32 71.020905 -0.000060 0.000060 0.000334 -0.002323 -106.379684 71.020905
[R_forearm]
31 322.776428 -0.000060 0.000030 0.212471 0.020749 -96.783279 322.776428
32 322.776428 -0.000060 0.000030 0.211469 0.031911 -99.045601 322.776428
[R_front_hand]
31 238.847015 -0.006795 2.210259 -2.635298 -10.645462 -26.312506 238.857239
32 238.847015 -0.006795 2.210259 -2.635298 -10.645461 -26.312506 238.857239
[R_weapon_bone]
31 155.664093 0.002503 -0.000030 0.003487 0.001180 -90.988930 155.664078
32 155.664093 0.002503 -0.000030 0.003487 0.001180 -90.988930 155.664078
[R_front_hand01_01]
31 87.624611 14.231146 22.918642 -154.633499 -59.950619 61.746044 91.683487
32 87.624611 14.231146 22.918642 -154.633499 -59.950619 61.746044 91.683487
[R_front_hand02_01]
31 89.356956 14.367283 -19.491137 154.602661 58.302849 63.744389 92.579636
32 89.356956 14.367283 -19.491137 154.602661 58.302849 63.744389 92.579636
[R_front_hand03_01]
31 87.286232 -22.307278 -0.143439 0.162155 -0.423168 -75.767921 90.091743
32 87.286232 -22.307278 -0.143439 0.162155 -0.423168 -75.767921 90.091743
[R_front_hand01_02]
31 71.020905 0.000060 0.000119 0.002323 -0.000334 106.381714 71.020905
32 71.020905 0.000060 0.000119 0.002323 -0.000334 106.381714 71.020905
[R_front_hand02_02]
31 71.020844 -0.000030 -0.000119 0.002323 -0.000334 106.381714 71.020836
32 71.020844 -0.000030 -0.000119 0.002323 -0.000334 106.381714 71.020836
[R_front_hand03_02]
31 71.020905 0.000000 0.000030 0.002323 -0.000334 106.381714 71.020905
32 71.020905 0.000000 0.000030 0.002323 -0.000334 106.381714 71.020905
[null_rope01_connect]
31 328.732483 0.000000 -0.000238 -135.988815 -56.685997 -166.785934 328.732483
32 328.732483 0.000000 -0.000238 -135.644455 -57.925900 -155.607071 328.732483
[Rope1_Seg01]
31 0.000059 -0.000043 0.000235 -21.834747 -17.906750 165.934738 0.000246
32 0.000061 -0.000042 0.000243 -32.456551 -26.950443 -172.566788 0.000254
[Rope1_Seg02]
31 139.999863 -0.000179 0.000000 10.977157 14.187433 16.697149 139.999863
32 139.999863 -0.000179 0.000000 28.292284 11.912899 22.995178 139.999863
[Rope1_Seg03]
31 139.999924 0.000060 -0.000060 6.800570 13.329803 8.414555 139.999924
32 139.999924 0.000060 -0.000060 12.965773 11.792640 6.481863 139.999924
[Rope1_Seg04]
31 139.999924 -0.000060 -0.000119 -4.114208 11.779944 -34.172218 139.999924
32 139.999924 -0.000060 -0.000119 -4.345895 1.938756 -11.032953 139.999924
[Rope1_Seg05]
31 139.999832 0.000119 -0.000060 2.303167 10.725476 -24.380405 139.999832
32 139.999832 0.000119 -0.000060 -1.751702 5.927318 -10.588971 139.999832
[Rope1_Seg06]
31 139.999954 0.000119 -0.000060 2.397320 2.510422 -6.683847 139.999954
32 139.999954 0.000119 -0.000060 -0.003285 0.001660 0.001660 139.999954
[Rope1_Seg07]
31 139.999985 0.000060 0.000000 0.006605 0.001660 0.001660 139.999985
32 139.999985 0.000060 0.000000 0.006605 0.001660 0.001660 139.999985
[Rope1_Seg09]
31 121.602913 0.000119 -0.000089 -89.793175 -1.359789 0.847147 121.602913
32 121.602913 0.000119 -0.000089 -89.793175 -1.359789 0.847147 121.602913
[L_mid_hand01]
31 103.859421 1.038730 8.195221 130.544373 -67.584534 -38.866943 104.187431
32 103.859421 1.038730 8.195221 130.544373 -67.584534 -38.866943 104.187431
[L_mid_hand02]
31 105.572853 -4.139662 -10.864139 -168.923172 43.409309 -73.498886 106.211075
32 105.572853 -4.139662 -10.864139 -168.923172 43.409321 -73.498909 106.211075
[L_mid_hand03]
31 104.641464 17.579376 -3.913581 -6.012627 17.808178 74.893677 106.179977
32 104.641464 17.579376 -3.913581 -6.012626 17.808172 74.893661 106.179977
[null_rope02_connect]
31 328.732849 0.000179 -0.000119 -120.780029 48.515720 4.865120 328.732849
32 328.732849 0.000179 -0.000119 -117.581818 53.532925 -1.075220 328.732849
[Rope2_Seg01]
31 0.000070 0.000111 0.000000 65.082062 15.402227 -13.548260 0.000131
32 0.000075 0.000111 0.000000 63.868450 10.608279 -17.962997 0.000134
[Rope2_Seg02]
31 139.999741 -0.000060 -0.000119 -9.531077 -9.049357 -5.139201 139.999756
32 139.999741 -0.000060 -0.000119 -15.406325 -11.806766 -5.534305 139.999756
[Rope2_Seg03]
31 140.000107 0.000030 0.000000 -18.260027 -11.420799 -9.703102 140.000107
32 140.000107 0.000030 0.000000 -25.589844 -10.781897 -10.798840 140.000107
[Rope2_Seg04]
31 139.999802 0.000000 -0.000060 -18.649963 -4.250679 -14.470350 139.999802
32 139.999802 0.000000 -0.000060 -18.096733 -1.500018 -12.355913 139.999802
[Rope2_Seg05]
31 139.999985 -0.000060 0.000119 -22.655012 -8.086410 -20.712933 139.999985
32 139.999985 -0.000060 0.000119 -28.420563 -8.705112 -22.845751 139.999985
[Rope2_Seg06]
31 139.999893 -0.000030 -0.000119 -20.341568 -5.126718 -28.277386 139.999893
32 139.999893 -0.000030 -0.000119 -17.956182 0.762727 -24.804201 139.999893
[Rope2_Seg07]
31 139.999893 0.000060 -0.000060 -5.910509 3.017987 -12.972070 139.999893
32 139.999893 0.000060 -0.000060 -4.017220 3.897799 -9.091724 139.999893
[Rope2_Seg09]
31 121.338966 0.000089 -0.000060 33.793236 -1.359788 -0.847141 121.338966
32 121.338966 0.000089 -0.000060 33.793236 -1.359788 -0.847141 121.338966
[R_mid_hand01]
31 104.680779 11.144459 -10.335981 -16.212063 45.237247 70.462852 105.778534
32 104.680779 11.144459 -10.335981 -16.212063 45.237247 70.462852 105.778534
[R_mid_hand02]
31 104.070427 2.443552 8.231699 49.067371 -67.749794 39.286461 104.424065
32 104.070427 2.443552 8.231699 49.067368 -67.749771 39.286453 104.424065
[R_mid_hand03]
31 106.028137 -11.221827 -5.996406 -177.101105 15.551026 -76.585571 106.788818
32 106.028137 -11.221827 -5.996406 -177.101105 15.551026 -76.585571 106.788818
[spine02]
31 129.756927 0.001550 0.000119 -0.780489 -3.984605 3.270700 129.756927
32 129.756927 0.001550 0.000119 -0.558291 -4.019952 0.021254 129.756927
[spine03]
31 78.614029 0.082333 -4.898984 1.197815 4.106634 6.397599 78.766571
32 78.614029 0.082272 -4.898986 1.342721 4.059707 8.420734 78.766571
[pelvis]
31 169.435242 0.051022 0.000000 0.007240 -0.191116 -6.307298 169.435257
32 169.435242 0.051022 0.000000 -0.004534 -0.191348 -2.214139 169.435257
[null_rope03_connect]
31 -1.257226 -2.466202 137.391083 -179.600418 -89.090431 -80.912445 137.418976
32 -1.257226 -2.466202 137.391083 179.818176 -88.161339 -83.771721 137.418976
[null_rope04_connect]
31 -1.259640 -2.480268 -137.844437 -179.600418 -89.090431 -80.912445 137.872513
32 -1.259640 -2.480268 -137.844437 179.818176 -88.161339 -83.771721 137.872513
[Rope3_Seg01]
31 -0.000029 -0.000009 0.000235 7.997792 -42.631287 -57.941532 0.000237
32 -0.000029 -0.000008 0.000243 12.665956 -29.455748 -64.574844 0.000244
[Rope3_Seg02]
31 139.999924 -0.000119 0.000060 1.946613 11.888618 21.016815 139.999924
32 139.999924 -0.000119 0.000060 2.039532 11.801667 17.488777 139.999924
[Rope3_Seg03]
31 139.999924 -0.000119 0.000119 -2.676883 6.750821 18.791115 139.999924
32 139.999924 -0.000119 0.000119 -2.392444 6.632266 18.928753 139.999924
[Rope3_Seg04]
31 139.999924 0.000119 0.000000 -2.791821 3.751319 9.772502 139.999924
32 139.999924 0.000119 0.000000 1.700348 6.095632 7.378367 139.999924
[Rope3_Seg05]
31 139.999924 -0.000238 0.000060 20.540619 13.923036 6.384645 139.999924
32 139.999924 -0.000238 0.000060 30.228058 22.574890 -9.193454 139.999924
[Rope3_Seg06]
31 139.999893 -0.000119 -0.000060 74.538185 31.158392 -1.773404 139.999893
32 139.999893 -0.000119 -0.000060 21.541292 18.729778 -26.538845 139.999893
[Rope3_Seg07]
31 139.999771 0.000060 -0.000119 19.743769 6.263881 -21.003071 139.999771
32 139.999771 0.000060 -0.000119 6.516282 4.681324 -18.154856 139.999771
[Rope3_Seg08]
31 139.999985 -0.000060 0.000000 5.296402 -0.752372 -11.305101 139.999985
32 139.999985 -0.000060 0.000000 1.964856 0.937662 -7.174358 139.999985
[Rope3_Seg09]
31 90.185997 -0.000179 -0.000060 89.793228 -1.359877 -0.847183 90.185997
32 90.185997 -0.000179 -0.000060 89.793228 -1.359877 -0.847183 90.185997
[R_rear_hand01]
31 103.366196 -6.073594 -10.757982 -177.714203 24.565960 -73.910950 104.101845
32 103.366196 -6.073594 -10.757982 -177.714203 24.565960 -73.910950 104.101845
[R_rear_hand02]
31 100.509819 12.039542 -7.992327 -12.874829 36.868488 72.167213 101.543350
32 100.509819 12.039542 -7.992327 -12.874829 36.868488 72.167213 101.543350
[R_rear_hand03]
31 101.539970 5.215704 5.435467 71.484581 -71.816628 21.513813 101.819031
32 101.539970 5.215704 5.435467 71.484581 -71.816628 21.513813 101.819031
[Rope4_Seg01]
31 0.000000 0.000000 0.000000 -91.775200 -42.945759 -118.940865 0.000000
32 0.000000 0.000000 0.000000 -95.404991 -28.933235 -113.265373 0.000000
[Rope4_Seg02]
31 139.999985 0.000060 0.000119 -4.526825 -10.839838 33.083412 139.999985
32 139.999985 0.000060 0.000119 -2.464987 -10.253388 22.033939 139.999985
[Rope4_Seg03]
31 139.999924 0.000000 -0.000238 -3.527389 -16.681759 22.731745 139.999924
32 139.999924 0.000000 -0.000238 -0.868454 -15.654835 14.743349 139.999924
[Rope4_Seg04]
31 139.999985 0.000000 0.000119 0.320333 5.875048 12.567322 139.999985
32 139.999985 0.000000 0.000119 0.918520 3.385329 11.303707 139.999985
[Rope4_Seg05]
31 139.999802 -0.000060 -0.000119 1.000873 17.047146 10.091350 139.999802
32 139.999802 -0.000060 -0.000119 1.122492 16.016134 9.229317 139.999802
[Rope4_Seg06]
31 139.999924 0.000000 0.000060 -0.790443 7.412940 5.538277 139.999924
32 139.999924 0.000000 0.000060 -0.210331 7.163204 4.851176 139.999924
[Rope4_Seg07]
31 139.999802 0.000000 0.000000 -1.047466 3.908792 3.494951 139.999802
32 139.999802 0.000000 0.000000 -0.470872 3.685631 3.005314 139.999802
[Rope4_Seg08]
31 139.999924 0.000000 0.000119 -2.355798 2.281745 2.121964 139.999924
32 139.999924 0.000000 0.000119 -1.922821 2.184284 1.820315 139.999924
[Rope4_Seg09]
31 90.185791 0.000060 0.000060 -135.617828 2.228885 0.850567 90.185791
32 90.185791 0.000060 0.000060 -135.617828 2.228885 0.850567 90.185791
[L_rear_hand01]
31 101.696655 -8.392275 -7.654577 -12.874829 -36.868488 107.832764 102.329041
32 101.696655 -8.392275 -7.654577 -12.874829 -36.868488 107.832764 102.329041
[L_rear_hand02]
31 102.726799 -1.568258 5.773216 71.484581 71.816628 158.486160 102.900848
32 102.726799 -1.568258 5.773216 71.484581 71.816628 158.486160 102.900848
[L_rear_hand03]
31 104.552910 9.721220 -10.420293 -177.714203 -24.565960 -106.089035 105.519653
32 104.552910 9.721220 -10.420293 -177.714203 -24.565960 -106.089035 105.519653
